<?xml version="1.0" standalone="no"?>
<!DOCTYPE svg PUBLIC "-//W3C//DTD SVG 20010904//EN"
 "http://www.w3.org/TR/2001/REC-SVG-20010904/DTD/svg10.dtd">
<svg version="1.0" xmlns="http://www.w3.org/2000/svg"
 width="9720.000000pt" height="9720.000000pt" viewBox="0 0 9720.000000 9720.000000"
 preserveAspectRatio="xMidYMid meet">

<g transform="translate(0.000000,9720.000000) scale(0.100000,-0.100000)"
fill="#000000" stroke="none">
<path d="M52625 80499 c-11 -7 -22 -14 -24 -16 -3 -2 -57 -354 -121 -783 -106
-711 -115 -782 -100 -795 31 -28 105 -46 192 -48 111 -2 118 4 142 131 79 432
385 851 702 963 69 24 71 24 532 27 l462 3 0 -2218 c0 -1455 -4 -2256 -10
-2327 -11 -114 -48 -245 -78 -280 -64 -72 -206 -121 -399 -137 -76 -6 -139
-12 -141 -13 -1 -2 -7 -39 -14 -84 -11 -81 -1 -205 19 -222 4 -4 73 -1 153 6
457 39 1125 54 1565 35 256 -11 634 -36 687 -46 21 -3 30 1 40 18 13 25 17
202 5 259 l-8 36 -107 6 c-271 16 -407 60 -449 146 -30 61 -51 190 -63 395 -6
104 -10 992 -10 2298 l0 2127 419 0 c429 0 475 -3 573 -40 134 -50 336 -221
466 -395 104 -139 196 -360 239 -569 23 -113 33 -121 153 -121 71 0 95 5 143
27 31 15 57 28 56 30 0 2 -53 356 -117 788 l-118 785 -39 13 c-56 19 -123 9
-245 -37 -58 -22 -148 -48 -200 -59 -220 -47 -211 -47 -1930 -47 -1496 0
-1635 1 -1747 18 -137 19 -313 62 -417 102 -80 30 -181 42 -211 24z"/>
<path d="M59848 80449 c-231 -18 -457 -79 -673 -183 -225 -108 -422 -251 -590
-428 -206 -217 -321 -434 -371 -703 -26 -141 -16 -421 20 -580 29 -126 73
-250 124 -351 90 -177 260 -378 452 -533 98 -79 682 -486 965 -673 411 -271
705 -557 838 -816 86 -166 111 -312 88 -502 -24 -193 -74 -319 -168 -421 -259
-279 -729 -337 -1125 -138 -292 147 -601 482 -786 854 -51 104 -88 206 -117
330 -33 139 -52 152 -178 119 -65 -17 -166 -64 -184 -86 -9 -10 -4 -85 17
-293 30 -285 36 -332 71 -560 23 -148 97 -571 105 -597 5 -18 213 -72 494
-127 494 -98 1014 -141 1335 -111 490 46 940 264 1278 619 237 250 359 540
374 891 22 551 -184 1019 -606 1371 -53 44 -244 180 -426 302 -395 265 -573
392 -732 520 -453 364 -693 685 -718 961 -9 93 10 260 41 356 49 156 134 250
299 331 143 71 231 92 385 92 244 0 422 -77 619 -267 243 -235 445 -606 508
-936 18 -93 19 -95 55 -113 25 -12 71 -20 141 -24 l104 -6 31 29 31 29 -29
470 c-26 423 -49 722 -68 889 l-7 60 -140 28 c-77 16 -271 58 -432 94 -331 73
-436 90 -660 104 -175 11 -209 11 -365 -1z"/>
<path d="M49565 80424 c-275 -27 -477 -68 -688 -138 -454 -150 -841 -388
-1178 -725 -464 -464 -747 -1032 -845 -1696 -28 -184 -25 -601 4 -790 64 -414
200 -768 429 -1120 440 -674 1167 -1126 2023 -1256 139 -21 189 -24 475 -24
564 0 729 31 1470 275 498 165 623 220 699 310 32 39 33 60 0 210 l-26 120 5
527 c3 434 6 537 19 578 36 120 71 160 170 195 56 19 219 54 322 67 58 8 60 9
69 43 12 45 5 256 -8 269 -7 7 -67 6 -190 -4 -580 -47 -1244 -46 -1939 1 -131
8 -233 11 -238 6 -25 -25 -29 -260 -5 -299 4 -6 56 -13 116 -17 152 -9 203
-20 297 -65 142 -68 182 -122 203 -274 12 -85 16 -1300 5 -1356 -21 -105 -324
-205 -659 -218 -591 -23 -1050 228 -1398 762 -253 389 -411 863 -474 1428 -21
191 -24 712 -5 897 58 559 186 965 413 1306 89 133 267 315 384 392 267 177
565 252 950 239 482 -16 857 -168 1160 -472 146 -146 267 -347 360 -600 48
-131 57 -139 142 -139 109 0 223 64 223 123 0 24 -276 1291 -282 1296 -6 5
-241 46 -368 64 -380 55 -744 81 -1220 85 -206 2 -393 2 -415 0z"/>
<path d="M35404 80379 c-14 -22 -17 -220 -5 -265 l11 -41 127 -7 c165 -8 262
-28 343 -68 54 -28 69 -40 87 -78 62 -126 72 -456 72 -2365 0 -1800 -8 -2156
-54 -2335 -16 -61 -30 -75 -126 -125 -88 -45 -161 -63 -315 -76 -71 -6 -133
-15 -139 -20 -15 -15 -19 -225 -6 -271 11 -36 14 -38 44 -34 39 7 220 21 467
38 246 17 1194 17 1440 0 247 -17 428 -31 467 -38 30 -4 33 -2 42 33 14 48 14
197 1 245 l-10 36 -88 7 c-48 3 -119 10 -159 15 -75 10 -207 57 -255 91 -37
27 -78 98 -95 168 -23 92 -34 560 -31 1316 l3 699 34 23 c40 27 71 29 112 7
21 -10 277 -344 818 -1067 859 -1147 868 -1158 1079 -1307 219 -155 382 -219
667 -266 194 -32 1366 -27 1399 6 11 11 21 227 12 273 -7 35 -8 36 -64 42
-238 26 -537 131 -749 263 -188 116 -395 300 -548 487 -139 170 -1613 2160
-1620 2187 -4 14 0 40 8 59 13 31 413 449 1371 1433 343 352 382 384 602 491
191 93 370 145 550 160 94 8 99 13 115 121 8 54 0 157 -13 170 -3 2 -106 -4
-229 -15 -551 -50 -718 -51 -1413 -10 -285 16 -524 28 -531 25 -19 -7 -38
-112 -31 -165 3 -25 13 -67 22 -93 l16 -48 86 0 c177 -1 332 -48 374 -114 17
-27 19 -44 15 -126 -6 -138 -26 -181 -159 -346 -146 -183 -287 -348 -456 -536
-165 -182 -709 -715 -906 -887 -145 -127 -541 -454 -557 -459 -12 -5 -11 1575
1 1883 13 326 41 431 130 479 105 57 275 96 421 96 54 0 68 3 74 18 15 33 18
228 5 267 l-12 38 -62 -7 c-703 -74 -1640 -74 -2317 0 -42 5 -59 3 -65 -7z"/>
<path d="M41804 80368 c-14 -21 -17 -219 -5 -264 l11 -41 117 -7 c278 -16 411
-61 449 -152 53 -126 63 -519 63 -2349 0 -1800 -8 -2156 -54 -2335 -16 -61
-30 -75 -126 -125 -88 -45 -161 -63 -315 -76 -71 -6 -133 -15 -139 -20 -15
-15 -19 -225 -6 -271 11 -36 14 -38 44 -34 39 7 220 21 467 38 246 17 1194 17
1440 0 247 -17 428 -31 467 -38 30 -4 33 -2 42 33 14 48 14 197 1 245 l-10 36
-88 7 c-159 12 -230 24 -308 55 -99 40 -128 60 -161 117 -43 73 -53 141 -63
403 -13 338 -12 3832 0 4038 13 209 32 296 74 338 46 46 89 55 296 61 197 5
250 -1 373 -47 207 -78 442 -325 553 -583 79 -182 113 -375 121 -673 6 -238
-6 -348 -57 -505 -72 -220 -213 -423 -360 -518 -108 -70 -139 -76 -360 -75
-138 1 -210 6 -247 16 -69 20 -78 10 -69 -73 11 -94 41 -163 89 -204 59 -51
248 -141 337 -160 216 -47 533 -20 794 67 429 144 837 515 1014 923 147 339
172 760 65 1099 -61 195 -160 355 -317 511 -333 332 -794 523 -1362 565 -114
8 -325 7 -892 -4 -408 -9 -876 -16 -1040 -16 -286 0 -687 13 -783 26 -33 4
-49 2 -55 -8z"/>
<path d="M28740 73740 c-909 -36 -1777 -122 -2713 -270 -992 -157 -2002 -446
-3122 -892 -1055 -421 -2272 -1024 -3265 -1618 -107 -64 -244 -143 -305 -175
-658 -350 -1307 -883 -1748 -1437 -375 -471 -645 -1001 -776 -1526 -96 -379
-128 -703 -117 -1177 30 -1248 150 -2938 317 -4465 466 -4257 1233 -7315 2206
-8799 393 -599 813 -950 1262 -1055 l59 -14 17 77 c9 42 32 126 50 186 65 216
120 512 146 785 18 183 15 584 -5 767 -62 570 -218 1045 -492 1495 -462 761
-1040 1780 -1284 2267 -182 363 -221 463 -284 716 -108 436 -150 768 -150
1180 0 379 33 642 124 993 97 373 208 653 522 1312 86 179 181 382 212 453
208 471 310 817 357 1217 16 133 16 512 0 650 -44 391 -143 762 -323 1215 -44
110 -92 250 -108 311 -194 746 231 1429 1255 2020 1262 727 3446 1285 6065
1549 640 64 1195 102 2010 137 379 16 1711 16 2080 0 1161 -51 2070 -153 2925
-328 1594 -327 3144 -726 4295 -1106 470 -155 668 -227 1470 -531 461 -175
792 -276 1010 -308 102 -14 369 -6 460 14 134 31 147 37 251 118 370 293 757
556 1160 788 142 82 176 106 228 164 34 37 61 73 61 80 0 18 -419 429 -631
617 -1397 1245 -3107 2316 -4924 3085 -1596 676 -3239 1122 -4970 1350 -505
66 -982 109 -1630 146 -243 13 -1414 20 -1695 9z"/>
<path d="M67115 73743 c-1379 -45 -2647 -212 -3943 -519 -2948 -699 -5768
-2147 -7931 -4074 -212 -188 -631 -599 -631 -617 0 -7 27 -43 61 -80 52 -58
86 -82 228 -164 403 -232 790 -495 1160 -788 104 -81 117 -87 251 -118 91 -20
358 -28 460 -14 218 32 549 133 1010 308 802 304 1000 376 1470 531 1034 341
2230 658 3715 982 912 199 1246 256 1985 339 838 94 1476 125 2560 125 728 0
972 -6 1610 -39 2683 -140 5177 -619 6780 -1302 1524 -650 2209 -1466 1984
-2365 -15 -57 -63 -197 -109 -313 -341 -866 -419 -1506 -270 -2214 76 -358
188 -651 513 -1331 316 -663 424 -937 522 -1315 91 -348 124 -612 124 -990 0
-273 -9 -399 -45 -645 -34 -237 -108 -576 -161 -740 -111 -343 -637 -1316
-1421 -2625 -244 -408 -306 -535 -407 -830 -88 -260 -143 -514 -176 -818 -20
-183 -23 -584 -5 -767 26 -273 81 -569 146 -785 18 -60 41 -144 50 -186 l17
-77 59 14 c136 32 323 111 445 189 1055 673 1902 2751 2534 6211 366 2008 659
4670 775 7049 41 846 41 1296 0 1610 -156 1188 -895 2274 -2110 3098 -159 108
-340 217 -500 302 -60 32 -198 111 -305 175 -760 455 -1682 931 -2527 1306
-1411 626 -2653 1013 -3860 1204 -962 152 -1823 237 -2753 270 -241 9 -1080
11 -1305 3z"/>
<path d="M48402 73133 c-493 -496 -891 -1021 -1116 -1472 -24 -47 -83 -185
-131 -306 -299 -753 -533 -1059 -1295 -1695 -107 -89 -210 -181 -229 -204
-183 -224 -202 -685 -55 -1376 38 -178 62 -279 154 -635 129 -502 181 -731
199 -879 6 -49 6 -353 1 -830 -5 -413 -14 -1181 -20 -1706 -127 -11501 -390
-18499 -735 -19527 -33 -98 -45 -115 -134 -183 -548 -418 -958 -1462 -1110
-2825 -48 -433 -56 -598 -56 -1250 0 -398 5 -690 13 -815 17 -261 50 -655 67
-815 20 -174 19 -218 -5 -264 -42 -83 -160 -149 -450 -251 -304 -108 -492
-190 -614 -268 -259 -166 -419 -368 -511 -645 -47 -144 -64 -263 -75 -524 -14
-360 -53 -522 -164 -683 -80 -117 -155 -179 -398 -323 -222 -134 -295 -185
-392 -277 -192 -182 -317 -389 -427 -710 -76 -221 -127 -452 -179 -815 -16
-116 -41 -254 -54 -307 -137 -524 -525 -921 -1208 -1234 -267 -123 -461 -198
-1018 -394 -559 -197 -807 -291 -1067 -406 -1089 -481 -1682 -1113 -1932
-2056 -49 -183 -79 -372 -111 -687 -59 -584 -131 -925 -266 -1266 -194 -489
-475 -826 -914 -1097 -58 -36 -213 -123 -344 -192 -130 -70 -274 -149 -319
-176 -436 -257 -639 -561 -714 -1067 -21 -146 -24 -555 -5 -748 12 -120 60
-477 65 -481 3 -3 13999 -29 15692 -29 1693 0 15689 26 15692 29 5 4 53 361
65 481 19 193 16 602 -5 748 -75 504 -271 801 -704 1061 -48 29 -196 111 -328
181 -132 70 -287 157 -345 193 -439 271 -720 608 -914 1097 -135 341 -207 682
-266 1266 -32 315 -62 504 -111 687 -250 944 -843 1575 -1932 2056 -260 115
-508 209 -1067 406 -557 196 -751 271 -1018 394 -683 313 -1071 710 -1208
1234 -13 53 -38 191 -54 307 -38 261 -62 392 -105 565 -112 442 -265 736 -501
960 -97 92 -170 143 -392 277 -243 144 -318 206 -398 323 -110 160 -150 326
-164 683 -11 261 -28 380 -75 524 -79 237 -200 411 -390 557 -183 141 -331
213 -735 356 -290 102 -408 168 -450 251 -25 48 -25 77 0 314 20 201 43 474
61 740 17 252 23 1157 10 1426 -38 758 -146 1454 -308 1989 -14 47 -31 108
-39 136 -20 77 -104 302 -168 449 -179 409 -408 733 -647 915 -89 68 -101 85
-134 183 -167 498 -318 2409 -440 5567 -135 3510 -244 8802 -305 14860 -5 542
-12 1111 -15 1265 -6 291 -1 366 36 550 22 110 93 404 169 700 213 827 269
1181 248 1549 -11 191 -65 360 -149 462 -19 23 -122 115 -229 204 -286 239
-397 340 -570 516 -323 331 -506 629 -725 1179 -48 121 -107 259 -131 306
-128 256 -340 579 -558 849 -186 232 -561 643 -660 723 l-47 39 -137 -139z"/>
<path d="M38615 55473 c-196 -79 -395 -340 -500 -655 -153 -463 -91 -927 173
-1297 266 -373 744 -588 1262 -568 330 13 586 99 750 253 135 128 234 297 310
529 65 201 120 522 120 707 0 62 -2 69 -39 115 -79 99 -237 233 -416 353 -317
211 -637 354 -1082 480 -334 95 -492 118 -578 83z"/>
<path d="M58297 55465 c-446 -99 -879 -260 -1202 -448 -236 -137 -483 -331
-586 -460 -37 -46 -39 -53 -39 -115 0 -37 7 -127 15 -201 53 -469 197 -829
414 -1033 165 -156 420 -242 751 -255 720 -28 1312 383 1474 1022 69 269 55
558 -39 843 -73 219 -181 399 -318 528 -152 144 -249 168 -470 119z"/>
<path d="M39459 42168 c-551 -600 -1331 -1383 -1904 -1913 -1731 -1601 -3327
-2753 -4705 -3396 -382 -178 -1206 -509 -1845 -741 -1206 -439 -2319 -716
-2793 -696 -45 1 -82 2 -82 2 0 -5 298 -195 425 -271 439 -264 991 -534 1480
-723 1805 -700 3480 -741 4915 -120 1638 708 3657 2096 5705 3922 293 260 509
458 513 468 2 4 -39 72 -91 151 -606 931 -1044 1959 -1287 3020 -28 123 -65
285 -82 359 -17 74 -34 141 -37 148 -5 9 -76 -61 -212 -210z"/>
<path d="M57520 42349 c-7 -23 -38 -162 -71 -308 -101 -453 -182 -742 -309
-1116 -239 -697 -599 -1431 -1017 -2074 -52 -79 -93 -147 -91 -151 4 -10 220
-208 513 -468 2048 -1826 4067 -3214 5705 -3922 1445 -625 3127 -580 4951 133
463 181 1020 455 1444 710 127 76 425 266 425 271 0 0 -37 -1 -82 -2 -474 -20
-1587 257 -2793 696 -639 232 -1463 563 -1845 741 -1415 660 -3080 1872 -4850
3531 -504 472 -1273 1250 -1758 1778 -113 122 -206 222 -208 222 -2 0 -8 -19
-14 -41z"/>
<path d="M41425 21979 c-418 -43 -775 -197 -1145 -494 -262 -210 -453 -431
-565 -655 -37 -73 -37 -75 -25 -128 14 -62 57 -112 133 -152 37 -19 51 -22 65
-14 9 6 54 58 98 115 195 249 462 451 689 518 176 53 440 67 581 31 155 -39
293 -125 438 -274 196 -200 300 -397 342 -646 20 -122 15 -367 -10 -533 -68
-434 -236 -870 -516 -1342 -351 -589 -862 -1240 -1551 -1975 -400 -426 -499
-539 -499 -565 0 -36 27 -95 57 -127 l27 -28 1777 0 1778 0 12 43 c6 23 98
303 204 622 233 698 384 1193 370 1216 -9 13 -110 48 -163 55 -61 8 -110 -7
-144 -44 -14 -15 -65 -115 -113 -222 -104 -235 -138 -298 -214 -393 -124 -154
-292 -249 -485 -276 -50 -7 -381 -11 -942 -11 l-864 0 271 268 c283 278 627
636 938 976 267 291 625 695 709 800 476 594 695 1180 652 1745 -19 261 -73
464 -176 661 -176 338 -509 612 -904 744 -242 81 -555 113 -825 85z"/>
<path d="M51425 21979 c-418 -43 -775 -197 -1145 -494 -262 -210 -453 -431
-565 -655 -37 -73 -37 -75 -25 -128 14 -62 57 -112 133 -152 37 -19 51 -22 65
-14 9 6 54 58 98 115 195 249 462 451 689 518 176 53 440 67 581 31 155 -39
293 -125 438 -274 196 -200 300 -397 342 -646 20 -122 15 -367 -10 -533 -68
-434 -236 -870 -516 -1342 -351 -589 -862 -1240 -1551 -1975 -400 -426 -499
-539 -499 -565 0 -36 27 -95 57 -127 l27 -28 1777 0 1778 0 12 43 c6 23 98
303 204 622 233 698 384 1193 370 1216 -9 13 -110 48 -163 55 -61 8 -110 -7
-144 -44 -14 -15 -65 -115 -113 -222 -104 -235 -138 -298 -214 -393 -124 -154
-292 -249 -485 -276 -50 -7 -381 -11 -942 -11 l-864 0 271 268 c283 278 627
636 938 976 267 291 625 695 709 800 476 594 695 1180 652 1745 -19 261 -73
464 -176 661 -176 338 -509 612 -904 744 -242 81 -555 113 -825 85z"/>
<path d="M56265 21979 c-418 -43 -775 -197 -1145 -494 -262 -210 -453 -431
-565 -655 -37 -73 -37 -75 -25 -128 14 -62 57 -112 133 -152 37 -19 51 -22 65
-14 9 6 54 58 98 115 195 249 462 451 689 518 176 53 440 67 581 31 155 -39
293 -125 438 -274 196 -200 300 -397 342 -646 20 -122 15 -367 -10 -533 -68
-433 -236 -871 -516 -1342 -351 -589 -862 -1240 -1551 -1975 -400 -426 -499
-539 -499 -565 0 -36 27 -95 57 -127 l27 -28 1777 0 1778 0 12 43 c6 23 98
303 204 622 233 698 384 1193 370 1216 -9 13 -110 48 -163 55 -61 8 -110 -7
-144 -44 -14 -15 -65 -115 -113 -222 -104 -235 -138 -298 -214 -393 -124 -154
-292 -249 -485 -276 -50 -7 -381 -11 -942 -11 l-864 0 271 268 c283 278 627
636 938 976 267 291 625 695 709 800 476 594 695 1180 652 1745 -19 261 -73
464 -176 661 -176 338 -509 612 -904 744 -242 81 -555 113 -825 85z"/>
<path d="M46504 21795 c-371 -55 -695 -226 -994 -525 -428 -429 -748 -1073
-874 -1760 -53 -290 -61 -396 -61 -820 0 -414 7 -515 56 -805 141 -841 550
-1533 1134 -1918 491 -324 1147 -376 1663 -132 309 146 573 391 831 770 356
523 551 1109 602 1810 15 202 6 698 -15 895 -78 714 -276 1260 -624 1720 -397
524 -893 784 -1492 779 -74 -1 -176 -7 -226 -14z m441 -429 c366 -181 588
-866 645 -1986 13 -253 13 -838 0 -1105 -50 -1040 -223 -1726 -511 -2030 -115
-121 -235 -167 -375 -145 -223 36 -422 251 -565 610 -162 410 -255 845 -301
1410 -16 199 -16 930 0 1155 93 1296 341 1983 766 2121 26 9 81 13 152 11 106
-2 113 -4 189 -41z"/>
</g>
</svg>
